<?xml version="1.0" encoding="iso-8859-1"?>
<!-- Generator: Adobe Illustrator 18.1.1, SVG Export Plug-In . SVG Version: 6.00 Build 0)  -->
<svg version="1.1" id="Capa_1" xmlns="http://www.w3.org/2000/svg" xmlns:xlink="http://www.w3.org/1999/xlink" x="0px" y="0px"
	 viewBox="0 0 581.176 581.176" style="enable-background:new 0 0 581.176 581.176;" xml:space="preserve">
<g>
	<g>
		<polygon points="132.436,0 59.789,0 59.789,314.804 36.324,314.804 36.324,387.451 59.789,387.451 132.436,387.451 
			157.402,387.451 157.402,314.804 132.436,314.804 		"/>
		<rect x="59.789" y="435.882" width="72.647" height="145.294"/>
		<rect x="255.015" y="193.725" width="72.647" height="387.451"/>
		<polygon points="327.662,0 255.015,0 255.015,72.647 230.049,72.647 230.049,145.294 255.015,145.294 327.662,145.294 
			351.127,145.294 351.127,72.647 327.662,72.647 		"/>
		<rect x="448.257" y="314.804" width="72.647" height="266.373"/>
		<polygon points="520.904,193.725 520.904,0 448.257,0 448.257,193.725 423.775,193.725 423.775,266.373 448.257,266.373 
			520.904,266.373 544.853,266.373 544.853,193.725 		"/>
	</g>
</g>
<g>
</g>
<g>
</g>
<g>
</g>
<g>
</g>
<g>
</g>
<g>
</g>
<g>
</g>
<g>
</g>
<g>
</g>
<g>
</g>
<g>
</g>
<g>
</g>
<g>
</g>
<g>
</g>
<g>
</g>
</svg>
